<?xml version="1.0" standalone="no"?>
<!DOCTYPE svg PUBLIC "-//W3C//DTD SVG 20010904//EN"
 "http://www.w3.org/TR/2001/REC-SVG-20010904/DTD/svg10.dtd">
<svg version="1.0" xmlns="http://www.w3.org/2000/svg"
 width="720.000000pt" height="720.000000pt" viewBox="0 0 720.000000 720.000000"
 preserveAspectRatio="xMidYMid meet">
<metadata>
Created by potrace 1.14, written by Peter Selinger 2001-2017
</metadata>
<g transform="translate(0.000000,720.000000) scale(0.100000,-0.100000)"
fill="#000000" stroke="none">
<path d="M4906 4309 c4 -6 -1 -9 -12 -8 -11 2 -25 0 -33 -5 -10 -6 -12 -5 -7
2 7 12 -3 9 -71 -20 -16 -6 -34 -10 -42 -9 -8 2 -10 -2 -5 -11 6 -10 4 -10 -9
1 -15 12 -17 12 -11 -4 5 -13 4 -16 -4 -11 -7 4 -12 2 -12 -3 0 -6 -7 -11 -15
-11 -9 0 -18 -7 -21 -15 -4 -8 -10 -12 -15 -9 -5 3 -8 0 -7 -8 2 -7 -3 -12
-11 -10 -12 3 -12 0 -1 -13 11 -13 10 -15 -4 -9 -14 5 -16 2 -12 -19 3 -20 1
-25 -11 -20 -11 4 -14 2 -9 -5 4 -7 2 -12 -4 -12 -6 0 -9 -4 -6 -9 4 -5 0 -12
-6 -14 -10 -4 -9 -8 2 -16 13 -9 13 -11 -2 -11 -10 0 -15 -6 -13 -12 9 -25
-13 -40 -58 -42 -25 0 -42 -5 -39 -10 3 -5 -2 -7 -11 -3 -10 3 -17 3 -17 -1 0
-4 -8 -9 -17 -10 -45 -4 -62 -9 -77 -21 -9 -8 -16 -10 -16 -5 0 4 -11 -3 -25
-16 -14 -13 -25 -29 -25 -36 0 -7 -4 -16 -10 -19 -6 -3 -8 2 -5 12 3 10 -1 6
-8 -10 -7 -15 -17 -24 -21 -20 -5 5 -7 1 -4 -7 3 -9 -6 -22 -21 -32 -14 -10
-21 -18 -15 -18 5 0 15 5 22 12 20 20 14 -7 -6 -28 -17 -17 -17 -20 -3 -32 9
-8 11 -11 5 -8 -7 3 -15 -1 -18 -10 -4 -10 -2 -13 7 -8 9 6 9 4 -1 -8 -10 -13
-10 -17 0 -21 11 -4 11 -6 0 -6 -10 -1 -10 -6 -1 -22 9 -17 8 -20 -2 -14 -8 5
-6 0 3 -14 9 -12 14 -31 11 -42 -3 -10 0 -19 6 -19 6 0 11 -5 11 -11 0 -5 -6
-7 -12 -3 -9 5 -9 2 1 -9 16 -20 25 -23 15 -4 -4 6 3 2 15 -10 12 -13 26 -23
31 -23 12 0 9 -22 -5 -33 -6 -5 -4 -7 5 -6 8 1 24 1 35 0 17 -1 18 -3 5 -11
-12 -8 -11 -10 8 -10 12 0 22 -4 22 -10 0 -5 7 -10 15 -10 8 0 21 -15 28 -32
8 -18 21 -39 30 -47 9 -7 15 -17 12 -20 -2 -4 2 -8 10 -8 11 0 12 4 4 14 -7 8
-8 13 -1 13 16 0 22 -26 9 -40 -7 -7 -7 -11 -2 -8 6 3 19 -4 30 -15 l20 -20
-22 12 c-13 6 -24 9 -24 6 -1 -3 -2 -9 -3 -15 0 -5 -9 -15 -20 -23 -16 -12
-16 -14 -2 -14 9 0 16 4 16 9 0 5 4 7 9 3 6 -3 8 4 6 16 -4 18 -2 19 11 8 13
-10 13 -14 1 -26 -21 -21 -55 -24 -68 -5 -10 16 -10 16 -5 0 6 -20 -23 -33
-38 -17 -8 9 -8 10 1 5 6 -3 14 -2 17 3 9 14 -52 5 -71 -10 -14 -12 -16 -12
-8 0 6 11 4 13 -9 8 -10 -4 -15 -3 -11 3 10 17 -7 11 -22 -7 -8 -10 -12 -12
-8 -5 3 6 1 12 -4 12 -6 0 -11 -5 -11 -11 0 -6 -7 -3 -16 5 -19 20 -21 20 -21
1 0 -8 5 -11 11 -8 6 3 5 0 -1 -8 -15 -16 -17 -33 -3 -24 6 3 7 -1 4 -9 -3 -9
-10 -13 -15 -10 -16 10 -9 -9 9 -22 9 -7 12 -14 5 -14 -8 0 -9 -9 -3 -30 6
-21 5 -30 -3 -30 -8 0 -8 -3 0 -11 6 -6 9 -18 6 -25 -3 -8 1 -22 8 -31 8 -9 9
-14 3 -10 -7 4 -14 0 -18 -8 -3 -8 0 -17 6 -21 7 -5 8 -2 3 6 -5 9 -4 11 4 6
9 -6 9 -11 1 -21 -9 -10 -6 -16 9 -25 12 -6 21 -8 21 -4 0 3 6 1 14 -5 11 -9
15 -9 19 1 4 9 6 10 6 1 1 -7 8 -10 18 -6 11 4 14 3 9 -5 -4 -7 -2 -12 3 -12
6 0 11 4 11 9 0 12 52 5 60 -9 5 -8 10 -9 14 -2 4 6 14 8 23 5 11 -4 14 -3 9
5 -9 15 26 3 36 -12 5 -7 8 -5 8 4 0 13 1 13 10 0 5 -8 10 -10 10 -3 0 6 8 10
18 9 9 -2 20 2 24 8 5 7 8 4 8 -8 0 -16 2 -16 16 -5 9 7 18 9 22 3 4 -5 13
-10 21 -12 12 -3 12 -1 0 14 -13 16 -12 16 7 6 12 -6 26 -7 35 -1 20 13 31 11
23 -3 -4 -7 4 -3 17 9 20 18 28 20 37 11 9 -9 12 -9 12 1 0 7 5 9 10 6 6 -3
10 -2 10 4 0 5 12 7 28 5 26 -5 26 -5 7 10 -20 15 -20 15 3 11 21 -4 22 -2 10
12 -9 12 -9 15 0 9 6 -4 12 -2 12 3 0 6 5 11 11 11 5 0 7 -5 3 -12 -4 -7 -3
-8 4 -4 6 4 8 14 5 24 -3 9 -3 14 2 10 11 -10 45 36 45 60 0 11 6 23 13 25 9
4 9 6 -1 6 -10 1 -10 4 0 15 7 8 16 12 20 9 4 -2 5 3 2 11 -4 10 -1 16 7 16
11 0 11 2 -1 10 -17 11 -20 30 -7 48 6 8 5 12 -4 12 -10 1 -9 4 3 11 11 6 15
16 11 26 -5 12 -3 14 8 8 11 -7 11 -5 -1 11 -8 10 -23 26 -32 35 -14 12 -15
18 -5 28 9 10 8 11 -4 6 -10 -4 -20 -1 -24 4 -3 6 -12 8 -18 4 -8 -4 -7 -1 1
9 11 14 10 18 -6 30 -10 7 -26 24 -35 38 -9 13 -17 21 -17 16 0 -4 -13 6 -30
24 -16 18 -30 27 -30 20 0 -7 -6 -5 -16 4 -8 9 -20 14 -25 11 -5 -4 -9 -1 -9
5 0 6 -4 8 -10 5 -5 -3 -10 -1 -10 5 0 7 -7 9 -16 6 -14 -5 -15 -4 -5 8 9 11
9 16 0 22 -8 4 -9 3 -5 -4 12 -20 -4 -13 -30 13 -14 14 -20 25 -13 25 6 0 3 8
-8 18 -10 9 -14 14 -9 10 18 -14 29 -8 16 7 -11 13 -10 14 6 8 16 -6 17 -4 7
8 -15 18 -16 17 69 22 31 1 54 -1 51 -5 -2 -5 -9 -6 -14 -3 -5 4 -9 1 -9 -5 0
-8 7 -9 18 -5 27 12 62 14 62 4 0 -4 7 -5 17 -2 11 4 14 3 9 -6 -9 -14 16 -11
26 4 4 6 8 1 8 -10 0 -17 3 -15 15 8 8 15 12 34 8 42 -3 8 0 15 7 15 6 0 8 5
5 10 -4 6 -12 7 -18 3 -7 -3 -3 4 8 18 11 13 16 21 11 17 -14 -12 -36 25 -24
39 6 7 14 10 19 7 5 -3 9 -1 9 5 0 5 -6 12 -12 14 -8 3 -7 6 4 6 9 1 20 6 24
13 4 6 3 9 -2 6 -5 -3 -16 1 -23 10 -13 14 -12 15 8 9 22 -6 23 -5 4 15 -10
12 -12 18 -5 14 9 -5 13 -3 11 5 -4 30 1 50 11 44 6 -4 8 -11 5 -16 -10 -15 2
-10 16 8 10 11 10 14 2 9 -7 -4 -13 -3 -13 2 0 6 7 13 16 16 9 3 12 2 8 -5 -4
-7 2 -9 16 -7 14 2 25 -3 27 -12 4 -13 3 -13 -6 0 -9 12 -11 11 -8 -7 2 -11 9
-28 16 -36 10 -13 9 -17 -6 -27 -14 -9 -14 -10 -2 -7 13 4 15 1 11 -15 -3 -12
-1 -19 4 -15 12 7 11 -80 -1 -90 -4 -5 -5 -2 -1 4 5 9 2 11 -10 6 -14 -5 -13
-8 7 -19 21 -12 22 -13 5 -14 -20 0 -20 0 0 -16 10 -8 13 -13 7 -9 -7 3 -13 1
-13 -5 0 -6 -4 -8 -10 -5 -6 4 -7 -2 -1 -17 4 -13 6 -29 4 -36 -3 -7 3 -23 13
-35 17 -19 17 -20 1 -8 -15 12 -17 11 -14 -5 1 -11 7 -25 11 -33 6 -9 5 -12
-2 -7 -7 4 -9 -11 -6 -50 4 -41 2 -54 -6 -49 -7 4 -4 -5 6 -21 11 -15 13 -25
6 -20 -10 6 -11 0 -7 -25 3 -18 8 -36 11 -40 2 -4 -1 -11 -7 -15 -8 -5 -9 -3
-4 7 5 8 4 11 0 6 -5 -4 -10 -18 -11 -30 -2 -12 0 -16 2 -9 3 6 10 12 15 12 6
0 7 -5 4 -11 -4 -5 1 -20 11 -32 10 -12 12 -16 4 -9 -17 15 -40 16 -40 1 0 -5
4 -8 9 -4 5 3 12 1 15 -4 4 -5 2 -12 -3 -15 -5 -3 -7 -15 -4 -26 3 -11 10 -17
17 -13 6 4 5 -1 -3 -10 -11 -14 -11 -17 0 -17 11 0 11 -2 -1 -10 -12 -8 -12
-10 -1 -10 9 0 10 -4 4 -12 -12 -17 -10 -48 5 -75 11 -20 10 -22 -5 -16 -15 5
-16 3 -5 -8 6 -7 12 -19 12 -27 0 -7 -6 -10 -12 -7 -7 4 -5 0 4 -7 15 -13 15
-15 0 -27 -15 -11 -15 -11 3 -6 11 3 16 3 12 -1 -4 -4 -1 -14 6 -23 10 -14 10
-14 -5 -3 -12 10 -18 10 -24 1 -4 -8 -3 -9 5 -5 6 4 14 0 17 -8 4 -11 11 -13
22 -7 21 11 44 3 36 -12 -3 -7 2 -3 11 8 13 16 17 17 24 6 7 -11 9 -11 14 0 3
9 6 7 6 -5 1 -19 1 -19 14 -1 9 12 16 14 21 7 4 -6 12 -9 20 -6 7 3 25 0 39
-5 23 -9 27 -8 27 7 1 16 1 16 11 0 11 -20 39 -24 39 -7 0 7 5 8 13 3 19 -14
41 -10 64 11 16 15 19 25 13 35 -14 21 -12 32 3 24 10 -6 10 -4 0 7 -15 16
-17 33 -3 24 6 -3 7 1 4 9 -3 9 -10 13 -15 10 -5 -3 -6 2 -3 10 3 8 13 17 22
19 12 3 10 5 -6 6 -19 1 -21 4 -12 20 13 25 13 34 0 26 -14 -9 -13 8 2 23 9 9
9 12 -1 12 -11 0 -11 3 -1 15 10 12 10 15 0 15 -10 0 -10 3 0 15 9 11 9 15 1
15 -8 0 -9 5 -2 19 6 10 7 21 4 25 -11 11 -10 100 1 108 7 5 6 8 -3 8 -11 0
-11 3 0 17 8 9 9 14 2 10 -15 -10 -11 16 7 39 8 10 10 15 4 11 -7 -4 -14 -1
-17 7 -3 8 1 17 9 20 10 4 12 2 8 -6 -4 -7 -3 -8 4 -4 6 4 9 13 6 20 -7 19 16
32 27 15 6 -10 9 -11 9 -1 0 17 18 15 45 -7 18 -13 21 -21 12 -30 -8 -8 -7
-11 4 -11 12 0 12 -2 -1 -10 -8 -5 -10 -10 -4 -10 15 0 24 -49 11 -57 -6 -4
-7 -1 -2 7 5 8 4 11 -3 6 -6 -4 -9 -13 -6 -21 4 -8 11 -12 18 -8 7 4 7 1 -1
-9 -7 -8 -10 -18 -6 -21 3 -4 0 -14 -8 -24 -12 -14 -12 -15 0 -9 9 6 12 5 9
-5 -3 -8 -1 -22 4 -33 7 -13 7 -16 -1 -12 -15 10 -14 -7 2 -23 10 -11 10 -13
0 -7 -7 4 -13 2 -13 -3 0 -6 5 -11 12 -11 6 0 3 -7 -8 -16 -10 -8 -13 -13 -6
-9 6 3 12 1 12 -4 0 -6 -6 -11 -12 -12 -7 0 -4 -4 7 -9 11 -5 14 -9 8 -9 -7
-1 -13 -6 -13 -12 0 -6 6 -7 13 -2 6 4 4 -5 -5 -19 -13 -19 -15 -29 -6 -34 7
-5 8 -3 3 6 -6 9 -4 11 5 5 11 -7 11 -10 -2 -19 -14 -9 -14 -11 1 -25 9 -9 11
-12 4 -7 -10 6 -12 4 -10 -10 1 -11 6 -24 10 -31 4 -6 2 -15 -4 -19 -8 -5 -9
-3 -4 6 5 9 4 11 -4 6 -9 -6 -9 -11 0 -22 9 -11 9 -18 -1 -29 -7 -9 -10 -18
-6 -22 3 -3 6 0 6 7 0 9 6 7 17 -7 16 -19 18 -19 32 -4 9 9 12 11 8 4 -7 -9
-2 -10 23 -3 28 8 31 7 26 -8 -5 -15 -5 -15 6 -1 7 9 19 14 26 11 7 -2 20 2
29 10 14 11 16 11 8 -1 -6 -11 -4 -13 7 -8 9 3 21 0 27 -6 9 -9 10 -7 5 8 -7
17 -6 18 8 7 13 -10 17 -10 21 0 4 11 6 11 6 0 1 -10 6 -10 21 -2 15 8 20 8
20 -2 0 -9 3 -9 10 2 9 13 10 13 10 0 0 -13 1 -13 10 0 8 12 10 12 10 1 0 -11
3 -11 15 -1 8 6 19 9 25 5 5 -3 10 2 10 12 0 15 2 16 10 3 9 -13 10 -13 10 1
0 8 -5 20 -11 26 -8 8 -7 13 2 18 8 6 10 4 4 -5 -6 -9 -4 -11 4 -5 9 5 10 10
2 18 -15 15 -14 54 2 60 7 3 4 6 -6 6 -17 1 -17 2 -2 17 12 12 13 19 4 30 -6
8 -9 21 -5 29 3 8 1 15 -5 15 -6 0 -7 5 -4 10 4 6 12 7 18 3 7 -3 3 4 -8 17
-11 13 -14 20 -7 16 10 -6 11 -1 6 20 -5 20 -4 25 6 19 7 -4 5 4 -5 18 -15 24
-15 26 2 36 10 6 12 11 6 11 -7 0 -13 9 -13 21 0 13 4 18 13 14 6 -4 3 1 -7 9
-11 9 -14 16 -7 16 8 0 9 5 3 16 -5 9 -7 26 -5 38 4 17 3 18 -6 6 -7 -9 -11
-10 -11 -3 0 6 5 15 11 19 8 4 7 9 -2 15 -11 7 -11 9 1 9 13 0 13 1 0 10 -13
8 -13 10 -1 10 11 0 10 4 -4 13 -10 8 -14 17 -8 20 5 3 8 25 6 49 -3 24 -5 51
-6 61 -1 9 -5 17 -10 17 -5 0 -3 8 4 17 12 14 12 16 0 8 -11 -6 -13 -3 -9 13
4 12 2 20 -2 17 -5 -3 -11 -1 -15 5 -3 5 0 10 7 10 9 0 9 3 2 8 -15 10 -28 44
-25 66 2 10 -2 15 -7 12 -5 -3 -16 2 -23 11 -10 12 -10 14 -1 9 6 -4 12 -2 12
3 0 6 -4 11 -9 11 -5 0 -13 9 -16 20 -4 11 -11 18 -16 15 -5 -4 -9 -1 -9 5 0
15 -26 41 -34 33 -3 -4 -6 -1 -6 6 0 7 -4 9 -10 6 -5 -3 -10 1 -10 10 0 9 -5
13 -10 10 -6 -4 -17 -1 -25 5 -8 7 -15 9 -15 5 0 -4 -7 -2 -15 5 -12 10 -15
10 -15 -1 0 -11 -2 -11 -10 1 -5 8 -10 10 -10 3 0 -6 -9 -9 -20 -6 -11 3 -28
-1 -37 -8 -14 -12 -16 -12 -9 1 4 8 0 6 -8 -4 -9 -11 -16 -16 -16 -12 0 5 -7
3 -15 -4 -8 -7 -15 -10 -15 -7 0 4 -14 -7 -31 -24 -19 -19 -37 -28 -48 -25
-14 6 -14 5 1 -7 15 -12 15 -14 -3 -25 -11 -7 -17 -18 -13 -24 4 -6 3 -8 -4
-4 -6 3 -9 16 -7 28 3 12 -1 26 -8 30 -9 6 -9 8 1 8 10 0 10 5 2 20 -7 14 -7
20 0 20 5 0 10 -5 10 -12 0 -6 3 -8 6 -5 4 4 -1 18 -11 33 -16 24 -16 26 -1
21 13 -5 15 -3 7 12 -6 10 -7 21 -4 25 3 3 0 6 -8 6 -11 0 -11 2 1 10 12 8 12
10 1 10 -11 0 -11 3 0 17 8 9 9 14 3 10 -7 -4 -15 0 -18 9 -3 8 -2 12 4 9 6
-3 10 -2 10 3 0 6 -7 13 -16 16 -11 4 -15 14 -12 31 4 17 1 25 -8 25 -8 0 -14
5 -14 11 0 5 -6 7 -12 3 -10 -5 -10 -4 -1 6 9 10 9 16 -2 26 -7 8 -19 14 -25
14 -7 0 -10 6 -7 14 4 9 0 13 -11 12 -18 -3 -42 16 -42 32 0 6 -9 8 -20 5 -11
-3 -20 0 -20 6 0 6 -3 10 -7 10 -5 -1 -19 -1 -33 0 -17 1 -21 4 -12 9 7 5 -15
8 -48 7 -34 -1 -64 3 -66 7 -3 5 -12 4 -20 -3 -11 -9 -14 -8 -14 2 0 11 -2 11
-8 1 -7 -10 -15 -10 -36 -2 -19 7 -25 7 -20 -1z m-590 -384 c-9 -9 -16 -13
-16 -8 0 12 22 34 28 28 2 -2 -3 -11 -12 -20z m548 -223 c3 -5 -1 -9 -9 -9 -8
0 -12 4 -9 9 3 4 7 8 9 8 2 0 6 -4 9 -8z m-422 -316 c7 5 8 2 3 -6 -6 -10 -12
-8 -27 9 -10 13 -18 28 -18 35 1 6 8 -2 16 -17 8 -16 20 -25 26 -21z m484 -78
c4 -7 4 -10 -1 -6 -4 4 -15 2 -24 -5 -14 -11 -14 -10 -2 6 16 20 18 21 27 5z
m-1 -28 c3 -5 1 -10 -4 -10 -6 0 -11 5 -11 10 0 6 2 10 4 10 3 0 8 -4 11 -10z
m-575 -40 c0 -5 -5 -10 -11 -10 -5 0 -7 5 -4 10 3 6 8 10 11 10 2 0 4 -4 4
-10z m565 -60 c-3 -5 -12 -10 -18 -10 -7 0 -6 4 3 10 19 12 23 12 15 0z m100
-59 c3 -5 2 -12 -3 -15 -5 -3 -9 1 -9 9 0 17 3 19 12 6z m-143 -53 c-7 -7 -12
-8 -12 -2 0 6 3 14 7 17 3 4 9 5 12 2 2 -3 -1 -11 -7 -17z"/>
<path d="M4755 4289 c-4 -6 -5 -12 -2 -15 2 -3 7 2 10 11 7 17 1 20 -8 4z"/>
<path d="M1631 4246 c-9 -11 -17 -13 -26 -6 -8 6 -15 6 -23 -2 -9 -9 -12 -9
-12 2 0 10 -4 8 -13 -5 -10 -12 -16 -15 -21 -6 -5 8 -13 8 -27 1 -10 -6 -19
-7 -20 -3 0 4 -4 -1 -9 -12 -7 -17 -9 -17 -9 -3 -1 11 -6 15 -16 12 -8 -4 -13
-10 -10 -14 2 -4 -9 -6 -26 -4 -16 2 -28 0 -24 -5 3 -5 -5 -7 -17 -3 -16 4
-19 2 -13 -8 6 -10 4 -12 -9 -7 -15 6 -52 -8 -66 -24 -3 -3 -18 -9 -33 -13
-15 -4 -25 -11 -22 -16 3 -5 0 -7 -8 -4 -8 3 -18 0 -22 -5 -3 -6 -11 -9 -16
-6 -5 3 -6 -2 -2 -11 4 -12 3 -15 -5 -10 -8 4 -12 0 -12 -11 0 -15 -2 -16 -10
-3 -7 11 -10 11 -10 2 0 -7 -4 -10 -10 -7 -6 3 -7 -1 -4 -10 4 -10 2 -15 -7
-13 -8 2 -13 -3 -11 -11 3 -12 1 -12 -14 0 -10 8 -15 9 -11 3 4 -7 0 -17 -8
-24 -8 -7 -15 -19 -15 -27 0 -7 -7 -16 -16 -20 -10 -3 -14 -13 -11 -25 4 -15
3 -17 -8 -8 -9 8 -14 6 -19 -5 -3 -9 -2 -14 3 -11 5 4 7 -3 4 -15 -5 -16 -8
-18 -15 -7 -7 9 -8 7 -5 -10 3 -12 1 -20 -3 -17 -5 3 -10 -5 -12 -17 -2 -13
-9 -22 -16 -20 -8 1 -11 -2 -7 -8 3 -6 12 -7 18 -3 7 4 7 0 -1 -10 -8 -9 -11
-21 -7 -27 3 -5 -1 -10 -10 -10 -9 0 -13 -5 -10 -10 4 -6 12 -8 18 -4 7 3 5 0
-3 -8 -19 -17 -24 -38 -8 -38 6 0 3 -7 -8 -16 -10 -8 -14 -13 -7 -10 6 4 14 2
18 -4 3 -5 2 -10 -3 -10 -6 0 -9 -13 -8 -30 1 -16 -3 -32 -8 -34 -6 -2 -2 -5
8 -5 20 -1 20 -1 0 -17 -10 -8 -14 -13 -8 -10 7 3 15 -1 18 -10 3 -8 2 -12 -4
-9 -6 3 -10 1 -10 -4 0 -6 6 -11 13 -11 8 0 7 -4 -3 -10 -12 -8 -12 -10 -1
-10 11 0 11 -3 0 -17 -10 -11 -10 -14 -1 -9 12 7 16 -4 13 -33 -2 -8 2 -10 11
-5 10 6 10 4 -1 -9 -13 -16 -9 -21 14 -18 6 1 1 -6 -9 -14 -19 -15 -19 -15 5
-15 19 0 21 -2 9 -10 -11 -7 -11 -10 -2 -10 7 0 10 -4 7 -10 -3 -5 -1 -10 5
-10 7 0 9 -7 6 -16 -3 -8 -2 -12 4 -9 6 3 10 -2 10 -13 0 -21 64 -84 76 -74 4
4 5 0 1 -9 -4 -12 -1 -16 11 -12 10 2 32 -10 50 -26 17 -16 32 -25 32 -19 0 7
6 4 13 -7 8 -10 19 -15 25 -11 7 4 12 3 12 -3 0 -6 7 -7 17 -4 11 4 14 3 9 -5
-4 -7 -3 -12 3 -12 5 0 12 6 14 13 4 10 6 10 6 0 1 -8 14 -13 32 -13 21 0 28
-4 23 -12 -5 -9 -2 -9 9 1 12 9 17 10 17 2 0 -8 5 -9 19 -1 24 13 34 13 26 1
-3 -6 4 -9 15 -8 11 1 20 6 20 12 0 6 3 7 8 0 4 -5 15 -11 26 -13 13 -3 17 1
13 12 -4 11 -1 13 10 9 12 -5 15 -2 10 9 -3 10 0 19 9 22 16 6 19 26 3 26 -5
0 -7 -5 -3 -12 5 -7 3 -8 -6 -3 -10 6 -10 10 2 19 8 6 13 17 10 24 -2 7 3 24
12 37 11 17 13 26 4 31 -7 5 -8 3 -3 -6 5 -9 4 -11 -4 -6 -9 6 -9 11 0 23 16
19 19 54 5 46 -6 -4 -5 1 3 10 11 14 11 17 0 17 -12 0 -12 2 0 9 11 7 11 9 0
14 -10 4 -10 6 -1 6 6 1 12 8 12 17 0 8 -5 12 -11 9 -6 -4 -5 1 2 13 16 26 5
54 -18 45 -16 -6 -17 -5 -3 12 14 17 14 18 -7 6 -19 -10 -23 -9 -23 3 0 7 -7
17 -16 20 -14 5 -15 4 -4 -9 11 -13 10 -14 -4 -9 -9 3 -16 15 -16 26 0 10 -4
17 -8 14 -4 -2 -14 -1 -22 5 -12 6 -12 9 -2 9 11 0 10 3 -1 14 -15 15 -12 70
3 61 5 -3 12 -1 15 5 4 6 1 9 -6 8 -6 -2 -14 3 -17 11 -3 10 0 11 9 5 12 -6
12 -5 1 8 -11 14 -10 18 7 28 12 6 21 17 21 24 0 19 25 27 39 13 9 -9 11 -7 5
8 -4 11 -4 17 1 13 4 -4 15 -2 23 5 13 10 14 9 7 -2 -6 -11 -5 -12 6 -5 24 15
117 14 123 -3 3 -8 1 -11 -4 -8 -6 3 -10 2 -10 -3 0 -6 8 -13 18 -17 16 -6 16
-7 -2 -21 -15 -10 -16 -14 -5 -15 8 0 6 -4 -6 -9 -16 -7 -17 -9 -3 -9 14 -1
15 -6 8 -31 -5 -17 -5 -28 0 -25 7 4 7 -16 0 -35 -5 -12 2 -56 10 -64 5 -5 3
-17 -3 -28 -10 -15 -9 -21 3 -29 12 -9 12 -10 -4 -5 -18 6 -18 5 -1 -20 9 -15
13 -24 7 -20 -13 8 -23 -33 -13 -53 5 -9 7 -27 6 -41 -1 -14 3 -31 9 -39 9
-12 8 -13 -3 -6 -11 6 -13 4 -8 -8 3 -10 2 -17 -3 -17 -6 0 -10 -4 -10 -10 0
-5 8 -7 18 -4 16 5 16 5 0 -8 -11 -10 -13 -19 -7 -30 6 -11 5 -19 -2 -24 -8
-5 -9 -3 -4 6 5 9 4 11 -4 6 -8 -6 -9 -12 -2 -20 15 -18 1 -28 -18 -13 -14 10
-14 10 -5 -3 6 -8 14 -24 18 -34 5 -16 4 -17 -9 -6 -13 11 -14 10 -9 -5 5 -12
4 -16 -4 -11 -7 4 -10 -1 -7 -15 3 -15 0 -19 -10 -15 -9 3 -12 0 -8 -10 3 -7
0 -14 -7 -14 -6 0 -8 -4 -5 -10 3 -6 -1 -7 -9 -4 -9 3 -16 1 -16 -5 0 -6 -7
-11 -15 -11 -8 0 -19 -9 -25 -20 -6 -11 -15 -18 -19 -16 -4 3 -8 -1 -8 -9 0
-8 5 -15 11 -15 6 0 4 -5 -4 -10 -11 -7 -11 -10 -2 -10 7 0 10 -4 7 -10 -3 -5
2 -10 12 -10 15 0 16 -2 3 -10 -13 -8 -12 -10 4 -10 15 0 16 -3 6 -15 -8 -10
-9 -15 -2 -15 7 0 9 -7 5 -17 -4 -10 -2 -14 5 -9 6 3 13 2 17 -4 3 -5 1 -10
-5 -10 -7 0 -6 -5 2 -14 10 -10 15 -11 21 -2 5 6 6 2 2 -10 -4 -15 0 -24 11
-28 9 -4 14 -13 10 -21 -3 -9 0 -15 10 -15 8 0 12 -4 9 -10 -3 -5 -1 -10 5
-10 6 0 8 -4 5 -10 -3 -5 -1 -10 4 -10 6 0 11 -10 11 -22 0 -19 2 -20 10 -8 9
13 10 13 10 0 0 -11 10 -16 35 -16 27 0 34 4 30 15 -4 11 -2 11 8 3 7 -6 23
-10 34 -8 25 5 63 28 63 38 0 5 5 8 11 8 5 0 7 -6 4 -12 -4 -7 1 -4 9 6 12 15
16 16 17 5 0 -8 5 -2 11 14 5 15 14 25 19 21 5 -3 9 0 9 6 0 7 7 9 16 6 8 -3
13 -2 10 3 -3 4 2 17 10 27 9 10 13 12 9 4 -4 -8 1 -6 9 4 9 11 16 27 16 35 0
13 2 13 9 3 6 -10 10 -4 14 18 5 22 11 29 19 24 8 -5 7 0 -2 11 -8 10 -10 16
-4 12 13 -8 38 16 27 26 -3 4 0 13 7 22 7 8 9 15 5 15 -5 0 0 10 11 22 16 19
16 20 1 9 -16 -12 -17 -12 -10 5 4 10 12 25 19 32 9 8 10 21 4 43 -8 26 -7 30
7 24 14 -5 13 -2 -2 15 -11 12 -15 21 -10 20 21 -5 29 1 15 10 -13 9 -13 10 0
10 13 0 13 1 0 10 -13 8 -13 10 -1 10 11 0 10 4 -5 16 -10 8 -13 12 -6 9 9 -5
12 -2 10 8 -2 9 1 16 6 15 5 0 13 6 17 14 5 7 9 8 9 2 0 -12 29 -12 48 0 7 4
12 2 12 -4 0 -7 6 -8 19 0 14 7 22 7 26 0 5 -8 11 -7 21 1 11 9 14 9 14 -1 0
-10 3 -10 15 0 12 10 15 10 15 -1 0 -11 2 -11 10 1 5 8 10 11 10 6 0 -11 29
25 30 37 0 4 -5 7 -11 7 -5 0 -7 -5 -3 -12 5 -7 3 -8 -5 -4 -9 6 -8 13 5 27
13 14 14 22 6 32 -9 10 -8 17 0 25 7 7 8 12 2 12 -5 0 -9 15 -9 34 0 19 3 32
8 29 4 -2 7 1 7 6 0 6 -4 11 -10 11 -5 0 -7 6 -4 14 3 8 13 13 22 10 9 -3 7 1
-5 7 -28 14 -29 25 -5 38 15 9 15 10 0 11 -10 0 -15 7 -13 18 2 9 4 17 5 17 1
0 3 8 5 18 2 10 -1 14 -7 11 -6 -4 -14 0 -19 7 -7 12 -9 12 -9 0 0 -9 -4 -10
-12 -5 -12 8 -35 10 -48 4 -16 -8 -139 -7 -134 1 3 5 1 9 -4 9 -5 0 -9 6 -10
13 -1 6 -4 36 -7 66 -3 29 -8 58 -12 65 -3 6 -3 8 2 4 4 -4 14 -3 21 2 6 6 65
13 130 16 65 3 129 11 143 17 14 5 29 10 34 9 4 -1 7 3 7 9 0 5 4 8 9 5 9 -6
7 37 -3 53 -4 5 -1 13 5 17 8 4 9 3 5 -4 -4 -7 -2 -12 3 -12 16 0 13 16 -4 30
-8 7 -15 18 -15 24 0 7 4 6 9 -2 6 -11 9 -9 14 7 2 11 -1 28 -8 38 -11 15 -11
21 2 35 14 15 14 19 -1 33 -19 20 -20 26 -3 20 7 -3 12 4 12 19 0 13 -3 22 -6
20 -4 -2 -9 3 -13 11 -3 8 -2 14 2 12 4 -1 7 3 7 8 0 6 -3 9 -6 8 -9 -3 1 80
12 93 7 8 7 14 -1 19 -6 4 -9 1 -8 -6 2 -6 -3 -14 -10 -16 -8 -3 -10 1 -5 13
4 12 2 15 -8 12 -8 -3 -22 -1 -31 4 -13 6 -16 5 -12 -5 3 -8 -2 -14 -11 -14
-8 0 -15 5 -15 11 0 7 -3 7 -8 1 -11 -16 -33 -17 -50 -3 -9 7 -13 8 -9 2 4 -7
-2 -11 -18 -11 -14 0 -22 4 -18 10 4 6 1 7 -8 1 -23 -14 -62 -17 -53 -3 5 8 3
9 -7 3 -23 -14 -52 -15 -61 -2 -4 7 -8 8 -8 3 0 -12 -55 -13 -66 -2 -4 4 -13
2 -21 -4 -9 -9 -17 -8 -27 0 -11 9 -15 9 -19 -1 -4 -10 -8 -10 -16 2 -10 13
-11 13 -11 0 0 -12 -2 -12 -9 -1 -6 9 -11 10 -15 2 -9 -15 -28 -3 -20 12 3 7
-2 3 -10 -7 -9 -11 -16 -14 -16 -7 0 7 -4 10 -9 6 -5 -3 -12 -1 -16 5 -4 6
-11 7 -18 3 -6 -3 -44 -6 -84 -5 -51 1 -73 -2 -73 -10 0 -6 -6 -4 -13 6 -12
16 -14 16 -26 2z m54 -846 c3 -5 1 -10 -4 -10 -6 0 -11 5 -11 10 0 6 2 10 4
10 3 0 8 -4 11 -10z m-625 -95 c14 -19 14 -19 -2 -6 -10 7 -18 18 -18 24 0 6
1 8 3 6 1 -2 9 -13 17 -24z"/>
<path d="M2740 4003 c0 -15 -29 -21 -62 -12 -16 4 -28 4 -28 1 0 -4 -17 -6
-37 -5 -57 4 -110 -6 -92 -18 11 -7 11 -9 0 -9 -7 0 -11 -6 -7 -15 3 -8 1 -15
-5 -15 -6 0 -7 -5 -3 -12 13 -21 9 -83 -6 -96 -8 -8 -10 -11 -3 -8 6 4 14 2
18 -4 3 -5 1 -10 -6 -10 -8 0 -8 -4 1 -15 8 -10 9 -15 2 -15 -7 0 -9 -7 -5
-17 4 -11 3 -14 -5 -9 -7 4 -12 2 -12 -3 0 -6 8 -11 18 -12 11 0 12 -2 4 -6
-10 -4 -9 -9 4 -24 15 -17 15 -19 1 -25 -9 -3 -13 -12 -10 -21 4 -11 2 -14 -5
-9 -8 5 -10 2 -6 -8 3 -9 9 -14 13 -12 4 3 7 -4 7 -15 0 -13 -5 -18 -16 -14
-9 3 -8 -1 4 -10 12 -9 15 -15 7 -15 -9 0 -11 -6 -6 -17 11 -29 13 -63 3 -69
-5 -3 -4 -12 3 -20 9 -11 8 -14 -7 -14 -17 0 -17 -1 2 -16 10 -8 13 -13 7 -9
-7 3 -13 1 -13 -4 0 -6 4 -11 8 -11 10 0 9 -36 -1 -46 -3 -4 -2 -16 4 -27 9
-15 8 -18 -2 -12 -9 6 -10 3 -5 -11 13 -33 12 -104 -1 -104 -7 0 -13 -5 -13
-11 0 -5 4 -8 9 -4 5 3 12 1 16 -5 3 -5 0 -10 -7 -10 -9 0 -9 -3 2 -10 13 -9
13 -10 0 -10 -13 0 -13 -1 0 -10 13 -9 13 -10 0 -10 -13 0 -13 -1 0 -10 13 -9
13 -10 0 -10 -11 -1 -10 -4 4 -15 18 -14 18 -15 2 -15 -11 0 -15 -4 -9 -12 12
-20 14 -50 3 -43 -13 8 -8 -17 5 -27 6 -4 1 -8 -10 -8 -18 -1 -17 -2 5 -16 14
-8 18 -13 9 -10 -12 3 -15 0 -12 -14 3 -12 11 -16 21 -13 10 4 13 2 8 -5 -3
-6 -2 -13 3 -16 5 -4 13 -1 17 5 5 8 3 9 -6 4 -9 -5 -11 -4 -6 4 6 8 12 9 20
2 9 -7 17 -7 26 2 10 10 11 9 5 -2 -6 -10 -4 -13 7 -9 8 4 21 2 29 -2 9 -6 21
-3 33 8 11 9 16 11 12 5 -8 -14 6 -18 18 -6 10 10 46 11 40 1 -3 -4 -1 -8 5
-8 5 0 13 5 16 11 5 6 12 4 22 -8 8 -10 12 -13 9 -7 -3 7 1 14 9 18 8 3 15 0
15 -7 0 -8 4 -6 10 3 5 8 10 10 10 4 0 -6 7 -11 15 -11 8 0 12 4 9 9 -3 4 -1
8 5 8 5 0 13 -5 16 -10 4 -7 12 -7 24 0 10 5 20 8 22 6 2 -2 10 2 17 10 10 11
10 14 0 14 -9 0 -9 3 0 12 8 8 8 15 1 24 -7 9 -7 19 0 33 8 14 8 22 1 26 -6 4
-10 15 -8 24 2 10 -3 25 -11 35 -12 15 -12 16 5 9 17 -6 17 -5 5 10 -7 9 -10
17 -5 17 4 0 3 5 -4 12 -7 7 -8 17 -1 30 7 13 6 18 -3 18 -6 0 -3 7 8 15 19
15 19 15 -1 8 -11 -3 -17 -3 -13 1 4 5 3 19 -3 33 -5 13 -5 22 0 19 5 -3 12 1
15 9 3 9 -1 18 -9 21 -8 4 -15 10 -15 16 0 5 6 6 13 3 6 -4 3 1 -7 9 -19 15
-13 21 19 17 6 -1 3 4 -5 11 -8 7 -15 23 -16 35 0 16 3 20 11 13 9 -8 12 -3 9
16 -2 18 1 24 12 20 7 -3 13 -2 13 2 -3 17 2 32 9 31 21 -4 32 2 26 14 -5 8
-2 8 9 -2 14 -11 17 -11 17 0 0 11 2 11 10 -1 7 -11 10 -11 10 -2 0 9 5 10 19
2 25 -13 44 -13 36 0 -3 6 1 7 9 4 9 -3 16 -11 16 -16 0 -6 14 -8 30 -6 21 3
30 0 30 -9 0 -8 5 -11 10 -8 6 4 8 11 5 16 -4 5 2 9 11 9 16 0 16 1 -2 15 -10
9 -13 14 -5 13 7 -2 15 5 16 15 2 9 -2 17 -8 17 -8 0 -7 3 2 9 9 6 10 10 2 16
-9 5 -9 10 -1 20 8 10 8 15 0 20 -8 5 -7 11 1 22 10 12 10 16 -2 24 -8 5 -9 9
-4 9 6 0 11 9 12 20 1 13 -2 18 -10 14 -7 -4 -1 5 12 19 21 23 22 27 8 33 -9
3 -15 10 -12 14 3 5 1 12 -5 15 -7 5 -8 11 -1 19 11 13 10 34 -2 53 -4 6 -3
15 3 18 8 5 7 12 -2 23 -11 13 -10 15 4 9 12 -4 15 -2 11 9 -3 7 -9 14 -14 14
-4 0 -6 6 -3 14 4 10 -5 13 -35 12 -23 -1 -41 2 -41 8 0 5 -7 1 -15 -10 -8
-11 -15 -14 -15 -6 0 12 0 12 -61 -19 -17 -8 -19 -8 -13 3 6 10 4 10 -9 -1 -9
-7 -23 -11 -31 -8 -11 4 -13 1 -9 -11 3 -9 2 -14 -2 -10 -5 5 -14 -1 -22 -12
-8 -11 -20 -20 -28 -20 -9 0 -12 -6 -8 -17 3 -10 3 -15 -2 -11 -4 4 -14 0 -22
-10 -8 -9 -12 -12 -9 -7 2 6 1 17 -4 25 -5 8 -4 22 2 33 7 14 7 17 -1 13 -6
-4 -11 -2 -11 3 0 6 5 11 12 11 6 0 3 7 -8 16 -10 8 -14 13 -8 10 7 -3 14 4
16 18 3 13 0 23 -6 23 -34 -1 -47 4 -41 16 4 6 0 4 -8 -6 -9 -11 -18 -14 -21
-8 -4 6 -14 7 -22 4 -9 -3 -20 0 -25 8 -5 9 -9 10 -9 2z m480 -247 c0 -11 -19
-15 -25 -6 -3 5 1 10 9 10 9 0 16 -2 16 -4z"/>
<path d="M3630 3991 c0 -7 -6 -11 -15 -7 -8 3 -15 0 -15 -7 0 -8 -3 -7 -9 2
-8 12 -12 12 -25 2 -8 -7 -20 -10 -26 -6 -5 3 -10 2 -10 -3 0 -6 -7 -12 -14
-15 -11 -4 -13 -1 -9 10 5 13 2 12 -14 -3 -11 -10 -18 -23 -15 -29 3 -5 -1 -5
-7 1 -10 9 -21 4 -47 -22 -19 -19 -34 -32 -34 -29 0 3 -11 -5 -25 -19 -14 -14
-25 -30 -25 -36 0 -5 -5 -10 -11 -10 -5 0 -7 -4 -4 -10 3 -5 2 -10 -3 -10 -9
0 -26 -55 -23 -72 0 -4 -7 -4 -17 -1 -15 6 -16 5 -2 -12 9 -11 10 -16 3 -11
-8 4 -13 2 -13 -6 0 -7 -7 -25 -14 -40 -10 -19 -11 -30 -4 -34 7 -5 8 -2 3 6
-5 9 -4 11 4 6 9 -6 9 -11 1 -21 -8 -10 -7 -14 2 -18 9 -4 10 -6 1 -6 -7 -1
-18 -11 -24 -23 -11 -21 -11 -22 5 -9 14 12 16 12 10 -3 -3 -9 -11 -16 -17
-16 -6 0 -2 -7 9 -16 10 -8 14 -13 7 -10 -6 4 -14 2 -18 -4 -3 -5 -1 -10 5
-10 6 0 8 -5 5 -10 -4 -6 -12 -7 -18 -3 -7 4 -6 0 2 -10 7 -9 11 -24 7 -32 -3
-8 0 -15 7 -15 8 0 6 -4 -3 -10 -13 -9 -13 -10 0 -10 13 0 13 -1 0 -10 -13 -9
-7 -14 13 -11 4 0 7 -3 7 -9 0 -5 -8 -10 -17 -11 -15 0 -15 -2 2 -9 11 -5 15
-9 8 -9 -11 -1 -12 -18 -2 -36 4 -5 5 -20 4 -32 -1 -12 2 -20 7 -17 4 3 8 -3
8 -13 0 -11 6 -25 13 -32 10 -11 9 -13 -5 -8 -12 4 -15 2 -11 -8 3 -8 9 -12
14 -9 5 3 9 -6 9 -20 0 -14 5 -26 11 -26 5 0 7 5 3 12 -4 6 -3 8 3 5 6 -4 8
-17 6 -31 -4 -18 0 -26 16 -31 17 -5 19 -10 11 -25 -8 -15 -6 -17 13 -13 12 3
19 3 16 -1 -8 -8 37 -56 51 -56 9 0 14 -15 11 -33 -1 -4 8 -3 19 3 17 9 20 8
20 -7 0 -15 2 -16 10 -3 8 12 10 12 10 -5 0 -17 2 -17 10 -5 5 8 10 10 10 4 0
-6 12 -16 27 -23 24 -11 25 -11 12 5 -13 16 -12 16 9 5 12 -7 20 -17 16 -23
-5 -7 -1 -7 12 0 10 6 27 7 40 2 12 -5 25 -6 28 -3 3 4 6 1 6 -6 0 -7 5 -9 12
-5 19 12 78 12 71 0 -4 -6 0 -5 9 2 13 10 17 10 21 0 4 -10 7 -10 14 -1 5 7
21 10 37 7 21 -3 26 -1 20 8 -6 10 -4 10 8 0 14 -11 18 -10 27 5 6 10 11 12
11 6 0 -7 5 -13 11 -13 5 0 8 4 5 8 -2 4 4 14 16 21 16 10 19 10 13 -1 -4 -7
3 -2 15 12 12 14 19 18 15 10 -6 -13 -5 -13 7 0 7 8 20 15 28 15 8 0 14 5 13
12 -1 6 4 14 13 17 10 4 13 1 9 -7 -4 -6 2 -3 12 9 10 12 26 24 36 27 9 4 17
10 16 14 -4 21 2 33 13 27 7 -5 9 -2 5 9 -4 11 -2 14 7 11 7 -3 15 3 18 13 6
25 -2 54 -13 48 -5 -4 -9 1 -9 10 0 9 -4 13 -10 10 -6 -3 -7 1 -4 9 4 9 -5 25
-23 40 -25 23 -26 25 -8 26 18 1 17 2 -5 14 -14 8 -29 12 -34 9 -5 -4 -6 -1
-3 4 8 13 -27 55 -38 45 -4 -4 -3 3 4 15 15 29 14 33 -5 33 -9 0 -12 5 -8 12
4 6 3 8 -4 4 -6 -3 -13 -2 -16 3 -3 5 8 7 25 6 17 -2 35 -8 39 -15 5 -8 9 -7
13 5 5 10 3 14 -5 9 -7 -5 -8 -3 -3 5 5 9 10 10 18 2 8 -8 16 -6 31 7 14 12
17 13 11 2 -8 -13 -7 -13 9 0 17 13 17 14 -1 21 -17 7 -17 8 0 8 10 1 15 6 12
11 -4 6 -8 32 -9 59 -2 27 -6 53 -10 60 -4 6 -2 11 4 11 7 0 5 7 -4 16 -19 18
-21 34 -5 34 8 0 9 4 0 13 -6 8 -8 17 -4 20 3 4 1 7 -5 7 -7 0 -11 3 -11 8 4
26 -4 55 -20 71 -14 14 -16 21 -8 25 8 3 4 12 -10 24 -13 11 -23 28 -23 37 0
9 -4 13 -10 10 -5 -3 -10 -1 -10 5 0 6 -5 8 -12 4 -8 -5 -9 -2 -5 9 5 12 -1
19 -18 23 -14 3 -25 13 -25 21 0 8 -4 11 -10 8 -5 -3 -10 -1 -10 4 0 6 -6 11
-13 11 -7 0 -18 5 -25 12 -12 12 -29 15 -130 23 -34 2 -67 7 -72 10 -5 3 -12
0 -16 -6 -4 -8 -9 -7 -15 2 -7 12 -9 12 -9 0z m80 -263 c5 -13 9 -17 9 -10 1
6 6 12 12 12 5 0 8 -4 5 -9 -4 -5 -1 -11 4 -13 6 -2 12 -11 13 -20 2 -9 8 -22
14 -29 13 -17 14 -28 2 -50 -12 -23 -145 -25 -167 -2 -13 12 -13 19 -3 34 6
11 9 24 6 29 -4 6 -1 10 5 10 6 0 8 5 5 10 -3 6 -1 10 6 10 7 0 10 3 6 6 -3 3
2 14 11 25 23 26 60 25 72 -3z m-439 -81 c-10 -9 -11 -8 -5 6 3 10 9 15 12 12
3 -3 0 -11 -7 -18z m559 -254 c0 -15 2 -14 18 0 22 20 52 22 53 5 0 -10 2 -10
6 0 6 15 28 16 53 2 21 -11 16 -50 -6 -50 -8 0 -14 -7 -14 -15 0 -9 -6 -12
-15 -9 -9 4 -15 0 -15 -9 0 -19 -23 -38 -49 -40 -11 0 -18 -4 -15 -9 6 -10
-51 -18 -107 -16 -32 1 -45 6 -42 14 2 7 -1 15 -7 19 -6 3 -9 1 -8 -6 2 -8 -8
-14 -24 -14 -16 -1 -28 4 -29 10 0 5 -2 18 -4 28 -2 9 1 17 6 17 6 0 5 9 -1
21 -18 33 1 45 72 44 35 0 68 5 74 10 18 17 54 16 54 -2z"/>
<path d="M4980 3830 c-9 -6 -10 -10 -3 -10 6 0 15 5 18 10 8 12 4 12 -15 0z"/>
<path d="M4896 3813 c-6 -14 -9 -15 -15 -4 -6 8 -11 9 -15 3 -3 -6 -1 -14 5
-17 12 -8 47 21 37 30 -3 3 -9 -2 -12 -12z"/>
<path d="M1658 3733 c7 -3 16 -2 19 1 4 3 -2 6 -13 5 -11 0 -14 -3 -6 -6z"/>
<path d="M2498 3683 c7 -3 16 -2 19 1 4 3 -2 6 -13 5 -11 0 -14 -3 -6 -6z"/>
<path d="M4750 3669 c-13 -9 -13 -10 1 -6 9 3 23 0 30 -6 11 -10 11 -9 0 6 -7
9 -14 17 -15 17 0 0 -8 -5 -16 -11z"/>
<path d="M1655 3520 c4 -6 11 -8 16 -5 14 9 11 15 -7 15 -8 0 -12 -5 -9 -10z"/>
<path d="M2490 3500 c0 -5 5 -10 11 -10 5 0 7 5 4 10 -3 6 -8 10 -11 10 -2 0
-4 -4 -4 -10z"/>
<path d="M4326 3442 c-3 -5 1 -9 9 -9 8 0 12 4 9 9 -3 4 -7 8 -9 8 -2 0 -6 -4
-9 -8z"/>
<path d="M4365 3431 c-3 -5 -2 -12 3 -15 5 -3 9 1 9 9 0 17 -3 19 -12 6z"/>
<path d="M1130 3220 c0 -5 5 -10 11 -10 5 0 7 5 4 10 -3 6 -8 10 -11 10 -2 0
-4 -4 -4 -10z"/>
<path d="M3710 2910 c0 -5 5 -10 11 -10 5 0 7 5 4 10 -3 6 -8 10 -11 10 -2 0
-4 -4 -4 -10z"/>
</g>
</svg>
